/usr/bin/ffmpeg -hide_banner -y -y -r 12 -start_number 0 -start_number_range 1 -i /home/feelinee/Juegos/Saoren Sombras de la Libertad/archivos krita/fotograma%04d.png -c:v libvpx-vp9 -b:v 2M /home/feelinee/Juegos/Saoren Sombras de la Libertad/archivos krita/Copia de ani2.webm
=====================================================
Input #0, image2, from '/home/feelinee/Juegos/Saoren Sombras de la Libertad/archivos krita/fotograma%04d.png':
  Duration: 00:00:02.12, start: 0.000000, bitrate: N/A
  Stream #0:0: Video: png, rgba(pc, gbr/unknown/unknown), 1920x1080 [SAR 11811:11811 DAR 16:9], 25 fps, 25 tbr, 25 tbn
Stream mapping:
  Stream #0:0 -> #0:0 (png (native) -> vp9 (libvpx-vp9))
Press [q] to stop, [?] for help
[libvpx-vp9 @ 0x5571121384c0] v1.15.2
Output #0, webm, to '/home/feelinee/Juegos/Saoren Sombras de la Libertad/archivos krita/Copia de ani2.webm':
  Metadata:
    encoder         : Lavf61.7.100
  Stream #0:0: Video: vp9, yuva420p(tv, progressive), 1920x1080 [SAR 1:1 DAR 16:9], q=2-31, 2000 kb/s, 12 fps, 1k tbn
      Metadata:
        encoder         : Lavc61.19.101 libvpx-vp9
      Side data:
        cpb: bitrate max/min/avg: 0/0/0 buffer size: 0 vbv_delay: N/A
frame=    0 fps=0.0 q=0.0 size=       0KiB time=N/A bitrate=N/A speed=N/A    frame=    3 fps=3.0 q=42.0 size=       0KiB time=00:00:00.25 bitrate=  15.3kbits/s speed=0.249x    frame=    9 fps=6.0 q=17.0 size=       0KiB time=00:00:00.75 bitrate=   5.1kbits/s speed=0.499x    frame=   15 fps=7.5 q=11.0 size=       0KiB time=00:00:01.25 bitrate=   3.1kbits/s speed=0.624x    frame=   20 fps=8.0 q=15.0 size=       0KiB time=00:00:01.66 bitrate=   2.3kbits/s speed=0.666x    frame=   25 fps=8.3 q=7.0 size=       0KiB time=00:00:02.08 bitrate=   1.8kbits/s speed=0.694x    frame=   29 fps=8.3 q=16.0 size=       0KiB time=00:00:02.41 bitrate=   1.6kbits/s speed=0.689x    frame=   29 fps=7.2 q=16.0 size=       0KiB time=00:00:02.41 bitrate=   1.6kbits/s speed=0.603x    frame=   29 fps=6.4 q=16.0 size=       0KiB time=00:00:02.41 bitrate=   1.6kbits/s speed=0.536x    frame=   29 fps=5.8 q=16.0 size=       0KiB time=00:00:02.41 bitrate=   1.6kbits/s speed=0.483x    frame=   29 fps=5.3 q=16.0 size=       0KiB time=00:00:02.41 bitrate=   1.6kbits/s speed=0.438x    frame=   29 fps=4.8 q=16.0 size=       0KiB time=00:00:02.41 bitrate=   1.6kbits/s speed=0.402x    [out#0/webm @ 0x557112139080] video:577KiB audio:0KiB subtitle:0KiB other streams:0KiB global headers:0KiB muxing overhead: 0.683649%
frame=   53 fps=8.7 q=10.0 Lsize=     581KiB time=00:00:04.41 bitrate=1076.9kbits/s speed=0.723x    
